<svg xmlns="http://www.w3.org/2000/svg" width="16" height="14" viewBox="0 0 16 14" fill="none">
  <path d="M15.875 2.5H13.5687C13.2875 1.20625 12.1625 0.25 10.8125 0.25C9.4625 0.25 8.3375 1.20625 8.05625 2.5H0.125V3.625H8.05625C8.3375 4.91875 9.4625 5.875 10.8125 5.875C12.1625 5.875 13.2875 4.91875 13.5687 3.625H15.875V2.5ZM10.8125 4.75C9.85625 4.75 9.125 4.01875 9.125 3.0625C9.125 2.10625 9.85625 1.375 10.8125 1.375C11.7688 1.375 12.5 2.10625 12.5 3.0625C12.5 4.01875 11.7688 4.75 10.8125 4.75ZM0.125 11.5H2.43125C2.7125 12.7937 3.8375 13.75 5.1875 13.75C6.5375 13.75 7.6625 12.7937 7.94375 11.5H15.875V10.375H7.94375C7.6625 9.08125 6.5375 8.125 5.1875 8.125C3.8375 8.125 2.7125 9.08125 2.43125 10.375H0.125V11.5ZM5.1875 9.25C6.14375 9.25 6.875 9.98125 6.875 10.9375C6.875 11.8938 6.14375 12.625 5.1875 12.625C4.23125 12.625 3.5 11.8938 3.5 10.9375C3.5 9.98125 4.23125 9.25 5.1875 9.25Z" fill="black" fill-opacity="0.44"/>
</svg>
